<svg xmlns="http://www.w3.org/2000/svg" width="265.29999" height="293" viewBox="-1 -1 44.216653 53.71667"><defs><linearGradient id="a" x1="220.57401" x2="220.57401" y1="0.82633823" y2="441.0885" gradientTransform="scale(1.12888 .88584)" gradientUnits="userSpaceOnUse"><stop offset="0" stop-color="#34AADC"/><stop offset="1" stop-color="#007AFF"/></linearGradient></defs><path fill="#ff9d00" d="M42.909 28.852c3.344 2.608 3.344 6.898 0 9.526L27.176 50.744c-3.344 2.608-8.788 2.608-12.132 0L-.69 38.4c-3.344-2.608-3.344-6.898 0-9.527l15.732-12.365c3.345-2.607 8.789-2.607 12.133 0l15.732 12.344z"/><path fill="#fc0" d="M15.082 43.026-.721 30.606c-1.593-1.248-2.476-2.92-2.476-4.697 0-1.777.883-3.449 2.476-4.697l15.803-12.44c1.593-1.249 3.746-1.947 6.028-1.947 2.282 0 4.413.698 6.028 1.946l15.803 12.42c1.593 1.249 2.476 2.92 2.476 4.697 0 1.777-.883 3.449-2.476 4.697l-15.803 12.42c-1.615 1.269-3.746 1.967-6.028 1.967-2.282 0-4.413-.698-6.028-1.946z"/><path fill="url(#a)" d="M187.37 370.83 25.81 243.86C9.524 231.1.5 214.01.5 195.84s9.024-35.26 25.312-48.02l161.56-127.19c16.29-12.76 38.3-19.898 61.63-19.898 23.33 0 45.12 7.138 61.63 19.9l161.56 126.97c16.29 12.77 25.31 29.85 25.31 48.02s-9.02 35.26-25.31 48.02l-161.56 126.98c-16.51 12.97-38.3 20.11-61.63 20.11-23.33 0-45.12-7.14-61.63-19.9z" style="fill:url(#a)" transform="matrix(.09781 0 0 .09781 -3.246 -1.072)"/><path fill="#fff" d="M21.165 29.986c8.074 0 14.62-5.35 14.62-11.95 0-6.602-6.546-11.953-14.62-11.953-8.076 0-14.621 5.35-14.621 11.952 0 6.6 6.545 11.951 14.62 11.951zm0 1.23c-8.907 0-16.127-5.901-16.127-13.18 0-7.281 7.22-13.183 16.127-13.183 8.906 0 16.126 5.902 16.126 13.182s-7.22 13.182-16.126 13.182z"/><path fill="#8cc8f6" d="M22.243 23.108a7.717 7.717 0 0 0 2.317-.676l4.602 1.892-2.411-3.612c1.268-1.634 1.268-3.703 0-5.336l2.41-3.612-4.337 1.783-.124 1.907c1.773 1.488 1.728 3.836-.115 5.272-.47.376-1.01.64-1.577.828zM20.09 12.976a8.021 8.021 0 0 0-2.336.68l-4.598-1.892 2.41 3.612c-1.268 1.633-1.268 3.702 0 5.336l-2.41 3.612 4.456-1.832.095-1.786c-1.864-1.483-1.85-3.855.03-5.345.438-.391 1.426-.806 1.574-.827z"/><path fill="#fff" d="m18.952 17.64-.612 10.857 4.96-10.069.71-10.836zm-.063 8.771 3.972-8.06-3.481-.636z"/></svg>